<svg width="24" height="24" viewBox="0 0 24 24" fill="none" xmlns="http://www.w3.org/2000/svg">
<path d="M12 19C9.56667 19 7.35 18.3208 5.35 16.9625C3.35 15.6042 1.9 13.7833 1 11.5C1.9 9.21667 3.35 7.39583 5.35 6.0375C7.35 4.67917 9.56667 4 12 4C14.4333 4 16.65 4.67917 18.65 6.0375C20.65 7.39583 22.1 9.21667 23 11.5C22.9 11.75 22.7958 11.9917 22.6875 12.225C22.5792 12.4583 22.4583 12.6833 22.325 12.9L20.75 11.425C19.9 9.75833 18.6958 8.4375 17.1375 7.4625C15.5792 6.4875 13.8667 6 12 6C10.1167 6 8.3875 6.49583 6.8125 7.4875C5.2375 8.47917 4.03333 9.81667 3.2 11.5C4.03333 13.1833 5.2375 14.5208 6.8125 15.5125C8.3875 16.5042 10.1167 17 12 17C12.1833 17 12.3625 16.9958 12.5375 16.9875C12.7125 16.9792 12.8917 16.9583 13.075 16.925C13.0083 17.2583 12.975 17.6 12.975 17.95C12.975 18.3 13.0083 18.6417 13.075 18.975C12.8917 18.9917 12.7125 19 12.5375 19H12ZM12 16C10.75 16 9.6875 15.5625 8.8125 14.6875C7.9375 13.8125 7.5 12.75 7.5 11.5C7.5 10.25 7.9375 9.1875 8.8125 8.3125C9.6875 7.4375 10.75 7 12 7C13.25 7 14.3125 7.4375 15.1875 8.3125C16.0625 9.1875 16.5 10.25 16.5 11.5C16.5 11.6167 16.4958 11.7292 16.4875 11.8375C16.4792 11.9458 16.4667 12.0583 16.45 12.175L14.9 13.6C14.5833 13.9167 14.3 14.2542 14.05 14.6125C13.8 14.9708 13.5917 15.35 13.425 15.75C13.1917 15.8333 12.9583 15.8958 12.725 15.9375C12.4917 15.9792 12.25 16 12 16ZM13.9125 13.4125C14.4375 12.8875 14.7 12.25 14.7 11.5C14.7 10.75 14.4375 10.1125 13.9125 9.5875C13.3875 9.0625 12.75 8.8 12 8.8C11.25 8.8 10.6125 9.0625 10.0875 9.5875C9.5625 10.1125 9.3 10.75 9.3 11.5C9.3 12.25 9.5625 12.8875 10.0875 13.4125C10.6125 13.9375 11.25 14.2 12 14.2C12.75 14.2 13.3875 13.9375 13.9125 13.4125ZM19 22C17.8833 22 16.9375 21.6083 16.1625 20.825C15.3875 20.0417 14.9917 19.0917 14.975 17.975C14.975 17.425 15.0917 16.9 15.325 16.4C15.5583 15.9 15.875 15.4583 16.275 15.075L19 12.5L21.7 15.075C22.1 15.4583 22.4125 15.8958 22.6375 16.3875C22.8625 16.8792 22.9833 17.4 23 17.95C23 19.0833 22.6083 20.0417 21.825 20.825C21.0417 21.6083 20.1 22 19 22ZM19 20C19.55 20 20.0208 19.8 20.4125 19.4C20.8042 19 20.9917 18.5167 20.975 17.95C20.975 17.6667 20.9125 17.4 20.7875 17.15C20.6625 16.9 20.5 16.6833 20.3 16.5L19 15.25L17.675 16.5C17.475 16.6833 17.3083 16.9042 17.175 17.1625C17.0417 17.4208 16.9833 17.6917 17 17.975C17 18.5417 17.1917 19.0208 17.575 19.4125C17.9583 19.8042 18.4333 20 19 20Z" fill="#20244C"/>
</svg>
