<svg width="40" height="40" viewBox="0 0 40 40" fill="none" xmlns="http://www.w3.org/2000/svg">
<path d="M17.0444 30.9104L17.0765 30.919L17.0798 30.9196L17.0444 30.9104Z" fill="#009145"/>
<path d="M30.1262 12.5613L30.1235 12.5619L30.0881 12.5719L30.1262 12.5613Z" fill="#009145"/>
<path d="M30.9189 22.927L30.9195 22.925L30.9202 22.9224L30.9189 22.927Z" fill="#009145"/>
<path d="M27.4395 9.87114L27.4401 9.86974V9.86841L27.4395 9.87114Z" fill="#009145"/>
<path d="M22.9616 9.09119L22.9309 9.08252H22.9282L22.9616 9.09119Z" fill="#009145"/>
<path d="M16.3564 21.7637C15.0318 21.7637 13.958 22.8374 13.958 24.1634C13.958 25.4881 15.0318 26.5619 16.3564 26.5619C17.6824 26.5619 18.7555 25.4881 18.7555 24.1634C18.7556 22.8374 17.6825 21.7637 16.3564 21.7637Z" fill="#009145"/>
<path d="M17.7497 13.5842C16.4124 13.5842 15.3286 14.668 15.3286 16.0053C15.3286 17.3427 16.4124 18.4264 17.7497 18.4264C19.0871 18.4264 20.1708 17.3427 20.1708 16.0053C20.1707 14.668 19.0871 13.5842 17.7497 13.5842Z" fill="#009145"/>
<path d="M24.5593 17.9946C23.7071 17.9946 23.0171 18.6846 23.0171 19.5368C23.0171 20.3884 23.7071 21.0784 24.5593 21.0784C25.4115 21.0784 26.1015 20.3883 26.1015 19.5368C26.1015 18.6846 25.4115 17.9946 24.5593 17.9946Z" fill="#009145"/>
<path d="M24.074 24.3264C23.1277 24.3264 22.3608 25.0932 22.3608 26.0395C22.3608 26.9858 23.1276 27.7532 24.074 27.7532C25.0202 27.7532 25.7877 26.9858 25.7877 26.0395C25.7877 25.0932 25.0202 24.3264 24.074 24.3264Z" fill="#009145"/>
<path d="M38.0941 17.5582L33.4515 16.3957L36.8923 13.0663C37.3948 12.5792 37.659 11.9205 37.659 11.2559C37.659 10.8234 37.5476 10.3884 37.3213 9.99726C36.8642 9.20789 36.0273 8.73938 35.1438 8.74008L35.1424 8.73938C35.1405 8.73938 35.1324 8.74078 35.1298 8.74078C34.9055 8.74203 34.674 8.77211 34.4437 8.83883L34.4451 8.83813L29.8465 10.1528L31.1618 5.54953C31.2272 5.32133 31.2586 5.08844 31.2586 4.8582C31.2586 3.97469 30.7935 3.13648 30 2.67867C29.6096 2.45312 29.1738 2.34102 28.742 2.34102H28.7394C28.0767 2.34039 27.4173 2.60531 26.9309 3.11047L23.6036 6.54922L22.4417 1.90594C22.1615 0.786094 21.1552 0 20 0C18.8448 0 17.8386 0.786094 17.5583 1.90586L16.3964 6.54914L13.0677 3.10844C12.5813 2.60586 11.922 2.34094 11.258 2.34094C10.8288 2.34094 10.3924 2.45172 9.99867 2.67992C9.20992 3.13641 8.74477 3.97055 8.74273 4.85148H8.74203V4.86477C8.74203 5.09367 8.77477 5.32391 8.83883 5.54883L10.1548 10.1534L5.54961 8.83672C5.32867 8.77398 5.1018 8.74328 4.87625 8.74125C4.86828 8.74063 4.86625 8.7393 4.85625 8.7393C3.97406 8.7393 3.13578 9.20641 2.67875 10.0005C2.4532 10.3909 2.34109 10.826 2.34109 11.2572C2.34109 11.9218 2.60602 12.5792 3.10719 13.065L6.55 16.3956L1.90602 17.5581C0.786172 17.8384 0 18.8448 0 20C0 21.1552 0.786172 22.1608 1.90586 22.4411L6.55055 23.6036L3.10773 26.9336C2.60656 27.4188 2.34094 28.0761 2.34094 28.742C2.34094 29.1731 2.45305 29.6089 2.6793 30.0006C3.1157 30.7561 3.89984 31.2112 4.73734 31.2512L4.74937 31.2592H4.85008C4.85078 31.2592 4.85078 31.2592 4.85148 31.2592H4.85812C4.86016 31.2592 4.86148 31.2592 4.86352 31.2592C4.86617 31.2586 4.87281 31.2592 4.87352 31.2586V31.2579C5.09977 31.2566 5.32523 31.2252 5.54555 31.1638L5.5943 31.1498L10.1541 29.8465L8.83883 34.4498C8.77414 34.6767 8.74148 34.9096 8.74148 35.1412C8.74148 36.0241 9.20789 36.8622 10.0007 37.3207C10.3918 37.547 10.8283 37.6584 11.258 37.6584L11.2948 37.6564V37.6545C11.9454 37.6458 12.5867 37.3841 13.0625 36.897L13.0652 36.8944L13.0659 36.8937L16.3965 33.4502L17.5584 38.0941C17.8385 39.2139 18.8448 40 20 40C21.1552 40 22.1615 39.2139 22.4418 38.0941L23.6043 33.4502L26.9329 36.8916C27.3927 37.3674 28.008 37.6209 28.6346 37.647L28.6546 37.6584H28.742C28.7453 37.6584 28.7487 37.6577 28.752 37.6577H28.7527C29.1804 37.6556 29.6109 37.5442 29.998 37.322C30.7927 36.8629 31.2585 36.0247 31.2585 35.1412C31.2585 34.9103 31.2265 34.6787 31.1624 34.4505L29.8457 29.8459L34.4503 31.1626C34.6812 31.2287 34.9141 31.2593 35.1416 31.2593C36.0192 31.2593 36.8488 30.7988 37.3091 30.0207H37.3098L37.3111 30.0187L37.3171 30.0094L37.3231 29.9994C37.5474 29.6097 37.6588 29.1745 37.6588 28.7435C37.6588 28.0774 37.3938 27.4195 36.8913 26.9337L33.4505 23.6037L38.0939 22.4412C39.2139 22.1608 40 21.1552 40 20C40 18.8448 39.2139 17.8384 38.0941 17.5582ZM37.5135 20.1215L32.4918 21.3787C31.7271 21.5688 31.1238 22.1602 30.9195 22.9249C30.8688 23.1124 30.8448 23.302 30.8448 23.4881C30.8448 24.0688 31.0777 24.6353 31.5075 25.0517L35.2292 28.6527L35.2672 28.7434L35.2512 28.8041L35.1417 28.8676L35.1071 28.8629L30.088 27.4274L30.1315 27.4401C29.932 27.3827 29.7291 27.3553 29.5323 27.3553C28.963 27.3553 28.4071 27.5795 27.9934 27.9933C27.5796 28.4057 27.3554 28.9623 27.3554 29.5309C27.3554 29.7311 27.3834 29.9326 27.4395 30.1287L28.8623 35.1071L28.8669 35.1411L28.8048 35.2492L28.7421 35.2659L28.652 35.2285L25.0517 31.5068C24.6359 31.0777 24.0694 30.8441 23.4881 30.8441C23.2993 30.8441 23.1098 30.8688 22.9249 30.9182C22.1622 31.123 21.5709 31.7249 21.3787 32.491L20.1215 37.5134L20 37.6083L19.8786 37.5135L18.622 32.4912C18.4298 31.7245 17.8373 31.1232 17.0765 30.9189C16.887 30.8676 16.6962 30.8442 16.5126 30.8442C15.9307 30.8442 15.3648 31.0778 14.949 31.5062L11.3501 35.2273L11.258 35.2666L11.1973 35.2499L11.1332 35.1412L11.1385 35.1072L12.5612 30.1288L12.562 30.1269C12.6173 29.9313 12.6447 29.7305 12.6447 29.5309C12.6453 28.9623 12.4204 28.4065 12.0074 27.9934C11.5937 27.579 11.037 27.3561 10.4685 27.3561C10.269 27.3561 10.0688 27.3834 9.8732 27.4395L4.89219 28.863L4.89422 28.8623L4.85812 28.8677L4.7507 28.8049L4.73266 28.7422L4.7707 28.6527L8.49312 25.0518L8.49445 25.0505C8.92227 24.6347 9.15578 24.0695 9.15578 23.4875C9.15578 23.3 9.13109 23.1105 9.08172 22.925C8.8775 22.1623 8.27484 21.5697 7.5075 21.3781L2.48641 20.1216L2.39172 20L2.48641 19.8786L7.50875 18.6214C8.27484 18.4305 8.8775 17.838 9.08172 17.0745C9.13109 16.889 9.15578 16.6995 9.15578 16.512C9.15578 15.9308 8.92219 15.3648 8.49312 14.9484L4.7707 11.3475L4.73266 11.2574L4.74937 11.1966L4.75062 11.194L4.85805 11.132L4.89148 11.1366L9.8718 12.5607L9.8757 12.5621C10.0692 12.6162 10.2687 12.6435 10.4684 12.6435C11.0369 12.6435 11.5928 12.4206 12.0073 12.007L12.0085 12.0055C12.4202 11.5931 12.6452 11.0379 12.6445 10.4687C12.6445 10.2691 12.6171 10.0676 12.5611 9.87141L11.1384 4.89305L11.133 4.85836L11.1958 4.75094L11.1991 4.74898L11.2578 4.73289L11.3486 4.77164L14.9488 8.49336L14.9502 8.49469C15.3653 8.9218 15.9299 9.15531 16.5124 9.15531C16.6986 9.15531 16.8875 9.13133 17.0737 9.08187L17.0763 9.08125C17.8371 8.87641 18.4298 8.27578 18.6219 7.50898L19.8784 2.48664L20 2.39172L20.1215 2.48641L21.3787 7.50875C21.5709 8.27484 22.1621 8.87687 22.9249 9.08102L22.9309 9.08234C23.1137 9.13109 23.3013 9.15508 23.4881 9.15508C24.0688 9.15508 24.6353 8.92219 25.051 8.49375L28.652 4.77141L28.6533 4.77L28.742 4.73266L28.8035 4.74937L28.8876 4.79805L28.8055 4.7507L28.8669 4.85812L28.8623 4.89352L27.4402 9.86984C27.3828 10.0681 27.3561 10.2689 27.3561 10.4684C27.3554 11.0377 27.5803 11.5929 27.9934 12.0066L27.9941 12.0073C28.4078 12.4198 28.963 12.6433 29.5323 12.6433C29.7285 12.6433 29.928 12.6166 30.1235 12.5619L35.1078 11.1371L35.1132 11.1351L35.1418 11.1317L35.2513 11.1952L35.2673 11.2559L35.2286 11.348L31.5088 14.9469C31.0771 15.3633 30.8449 15.9305 30.8449 16.5111C30.8449 16.6993 30.8696 16.8888 30.919 17.075V17.073C31.1225 17.8384 31.7264 18.4304 32.4932 18.6213L37.5135 19.8784L37.6083 19.9998L37.5135 20.1215Z" fill="#009145"/>
</svg>
