<svg width="67" height="74" viewBox="0 0 67 74" fill="none" xmlns="http://www.w3.org/2000/svg">
<path d="M36.5959 6.66667C49.5959 6.66667 59.9292 17 59.9292 30C59.9292 39.3333 54.5959 47.3333 46.5959 51V66.6667H23.2626V56.6667H19.9293C16.2626 56.6667 13.2626 53.6667 13.2626 50V40H8.26258C6.92925 40 5.92925 38.3333 6.92925 37.3333L13.2626 29C13.9293 16.3333 23.9293 6.66667 36.5959 6.66667ZM36.5959 0C21.2626 0 8.59592 11.3333 6.92925 26.3333L1.59592 33.3333C-0.404082 36 -0.404082 39.3333 0.929251 42C2.26258 44.3333 4.26258 46 6.59592 46.3333V50C6.59592 56.3333 10.9293 61.3333 16.5959 63V73.3333H53.2626V55C61.5959 49.3333 66.5959 40.3333 66.5959 30C66.5959 13.3333 53.2626 0 36.5959 0ZM43.2626 26.6667L32.9292 46.6667L34.9292 33.3333H27.9292L34.9292 16.6667H43.2626L38.2626 26.6667H43.2626Z" fill="#009145"/>
</svg>
