<svg width="40" height="40" viewBox="0 0 40 40" fill="none" xmlns="http://www.w3.org/2000/svg">
<path d="M17.8542 27.8542C18.1737 27.5348 18.3334 27.139 18.3334 26.6667C18.3334 25.4167 18.0348 24.2709 17.4376 23.2292C16.8404 22.1876 16.0279 21.3612 15.0001 20.7501V26.6667C15.0001 27.139 15.1598 27.5348 15.4792 27.8542C15.7987 28.1737 16.1945 28.3334 16.6667 28.3334C17.139 28.3334 17.5348 28.1737 17.8542 27.8542ZM24.5209 27.8542C24.8404 27.5348 25.0001 27.139 25.0001 26.6667V20.7501C23.9723 21.3612 23.1598 22.1876 22.5626 23.2292C21.9654 24.2709 21.6667 25.4167 21.6667 26.6667C21.6667 27.139 21.8265 27.5348 22.1459 27.8542C22.4654 28.1737 22.8612 28.3334 23.3334 28.3334C23.8056 28.3334 24.2015 28.1737 24.5209 27.8542ZM3.83341 34.9167L2.79175 31.7501C3.95841 31.3612 4.89591 30.6806 5.60425 29.7084C6.31258 28.7362 6.66675 27.639 6.66675 26.4167V9.00008C6.00008 8.27786 5.39591 7.50008 4.85425 6.66675C4.31258 5.83341 3.8473 4.94453 3.45841 4.00008L6.54175 2.66675C7.70842 5.38897 9.50703 7.56953 11.9376 9.20842C14.3681 10.8473 17.0556 11.6667 20.0001 11.6667C22.9445 11.6667 25.632 10.8473 28.0626 9.20842C30.4931 7.56953 32.2917 5.38897 33.4584 2.66675L36.5417 4.00008C36.1529 4.94453 35.6806 5.83341 35.1251 6.66675C34.5695 7.50008 33.9723 8.27786 33.3334 9.00008V26.4167C33.3334 27.639 33.6806 28.7362 34.3751 29.7084C35.0695 30.6806 36.0001 31.3612 37.1667 31.7501L36.1251 34.9167C34.2917 34.3056 32.8126 33.2223 31.6876 31.6667C30.5626 30.1112 30.0001 28.3612 30.0001 26.4167V11.9167C28.5279 12.889 26.9515 13.6459 25.2709 14.1876C23.5904 14.7292 21.8334 15.0001 20.0001 15.0001C18.1667 15.0001 16.4029 14.7292 14.7084 14.1876C13.014 13.6459 11.4445 12.889 10.0001 11.9167V26.4167C10.0001 28.3612 9.43064 30.1112 8.29175 31.6667C7.15286 33.2223 5.66675 34.3056 3.83341 34.9167ZM16.6667 31.6667C15.2779 31.6667 14.0973 31.1806 13.1251 30.2084C12.1529 29.2362 11.6667 28.0556 11.6667 26.6667V16.2084L13.9167 16.7501C15.1945 17.0556 16.3542 17.5904 17.3959 18.3542C18.4376 19.1181 19.3056 20.0279 20.0001 21.0834C20.6945 20.0279 21.5626 19.1181 22.6042 18.3542C23.6459 17.5904 24.8056 17.0556 26.0834 16.7501L28.3334 16.2084V26.6667C28.3334 28.0556 27.8473 29.2362 26.8751 30.2084C25.9029 31.1806 24.7223 31.6667 23.3334 31.6667C22.6945 31.6667 22.0904 31.5487 21.5209 31.3126C20.9515 31.0765 20.4445 30.764 20.0001 30.3751C19.5556 30.764 19.0487 31.0765 18.4792 31.3126C17.9098 31.5487 17.3056 31.6667 16.6667 31.6667Z" fill="#20244C"/>
</svg>
