<svg width="40" height="40" viewBox="0 0 40 40" fill="none" xmlns="http://www.w3.org/2000/svg">
<path d="M35.0782 27.6573V27.6577L32.4759 22.1416C32.4797 22.0337 32.4821 21.9233 32.4821 21.8086C32.4821 19.8955 32.0936 18.0683 31.3913 16.4077C30.8197 15.0577 30.0413 13.817 29.0956 12.7262L27.9262 14.0633C28.185 14.3742 28.4294 14.6977 28.6564 15.0336C29.9636 16.9688 30.7256 19.2959 30.7256 21.8086C30.7256 21.9605 30.7203 22.1185 30.7136 22.2868L30.7044 22.5023L33.4894 28.4068L33.4899 28.4073C33.5063 28.4424 33.5125 28.4742 33.513 28.5075C33.513 28.5504 33.5005 28.5957 33.4768 28.6338C33.4532 28.6719 33.4224 28.7008 33.3771 28.7239L31.3237 29.7197L31.3232 29.7206C30.9806 29.8869 30.6991 30.1452 30.5048 30.4562C30.3096 30.7666 30.2002 31.1329 30.2002 31.5152V34.8718C30.2002 34.907 30.1935 34.9359 30.1819 34.9644C30.1646 35.0058 30.1332 35.0439 30.0947 35.0699C30.0561 35.0955 30.0152 35.1095 29.9627 35.1099H24.449C24.1757 35.1095 23.911 35.1659 23.6721 35.2676C23.3129 35.4199 23.0112 35.672 22.7958 35.9891C22.5813 36.3067 22.455 36.6948 22.455 37.1049V38.2001C22.455 38.2088 22.454 38.2121 22.452 38.217C22.4496 38.2232 22.4424 38.2319 22.4352 38.2367C22.427 38.2416 22.4231 38.2435 22.4111 38.2435H11.2577C11.2491 38.2435 11.2456 38.2425 11.2408 38.2405C11.2341 38.2381 11.2259 38.2314 11.221 38.2237C11.2157 38.2155 11.2143 38.2121 11.2138 38.2001V31.4226L10.8948 31.1589C9.54807 30.047 8.44572 28.6496 7.6808 27.0609C6.91588 25.4718 6.48736 23.6932 6.48689 21.808C6.48736 20.1327 6.82619 18.5411 7.43932 17.0917C8.35846 14.9184 9.89603 13.066 11.8313 11.7593C13.7666 10.4521 16.0937 9.69008 18.6063 9.68953C18.8218 9.68953 19.0358 9.69531 19.2479 9.70687L19.6605 7.97312C19.3125 7.94664 18.9611 7.93359 18.6063 7.93359C16.6933 7.93359 14.866 8.32156 13.205 9.0243C10.7141 10.078 8.59752 11.8363 7.10143 14.0506C5.60533 16.264 4.73049 18.9377 4.73096 21.808C4.73096 23.9602 5.22158 26.0034 6.09838 27.823C6.91346 29.5153 8.06158 31.0157 9.45791 32.2409V38.2C9.45744 38.4458 9.50807 38.6849 9.59963 38.9009C9.73697 39.2248 9.96353 39.4976 10.2503 39.6918C10.5367 39.8861 10.8875 40.0002 11.2577 39.9998H22.4113C22.6576 39.9998 22.8967 39.9492 23.1126 39.8581C23.4365 39.7208 23.7093 39.4938 23.9035 39.207C24.0973 38.9206 24.2115 38.5698 24.2115 38.2001V37.1049C24.2115 37.0698 24.2182 37.0408 24.2299 37.0123C24.2472 36.9705 24.279 36.9319 24.3176 36.9059C24.3571 36.8803 24.3981 36.8663 24.4492 36.8659H29.9628C30.2356 36.8659 30.5007 36.8104 30.7393 36.7087C31.0985 36.5564 31.4012 36.3048 31.6161 35.9872C31.8306 35.6695 31.9574 35.2816 31.9564 34.8718V31.5152C31.9569 31.4694 31.9694 31.4264 31.9931 31.3884C32.0171 31.3503 32.0504 31.32 32.0924 31.2997L34.1452 30.303L34.1462 30.3025C34.4981 30.1314 34.7824 29.8653 34.9738 29.5525C35.1656 29.2391 35.2692 28.8786 35.2692 28.5075C35.2696 28.2222 35.207 27.9296 35.0782 27.6573Z" fill="black"/>
<path d="M32.5912 6.53641H26.6399L29.957 0H23.0301L20.5912 10.244H23.4259L20.2065 20.5854L32.5912 6.53641Z" fill="black"/>
</svg>
