<svg width="40" height="40" viewBox="0 0 40 40" fill="none" xmlns="http://www.w3.org/2000/svg">
<path fill-rule="evenodd" clip-rule="evenodd" d="M12.6099 24.6467V14.6467H14.2765V24.6467H12.6099Z" fill="#009145"/>
<path d="M12.7213 8.39665C13.0421 7.84109 13.8439 7.84109 14.1647 8.39665L17.7732 14.6466C18.0939 15.2022 17.6929 15.8966 17.0514 15.8966H9.83458C9.19308 15.8966 8.79214 15.2022 9.11289 14.6466L12.7213 8.39665Z" fill="#009145"/>
<path fill-rule="evenodd" clip-rule="evenodd" d="M13.443 10.48L11.2779 14.23H15.6081L13.443 10.48ZM14.1647 8.39665C13.8439 7.84109 13.0421 7.84109 12.7213 8.39665L9.11289 14.6466C8.79214 15.2022 9.19308 15.8966 9.83458 15.8966H17.0514C17.6929 15.8966 18.0939 15.2022 17.7732 14.6466L14.1647 8.39665Z" fill="#009145"/>
<path fill-rule="evenodd" clip-rule="evenodd" d="M20.9429 24.4622V22.98V17.8036V7.46428C20.9429 4.99873 22.8084 3 25.1095 3C27.4107 3 29.2762 4.99873 29.2762 7.46428V17.8036V22.9805V24.4622C30.8003 25.684 31.7762 27.5613 31.7762 29.6666C31.7762 33.3486 28.7915 36.3333 25.1095 36.3333C21.4276 36.3333 18.4429 33.3486 18.4429 29.6666C18.4429 27.5613 19.4188 25.684 20.9429 24.4622ZM24.2615 17.5176C25.2577 17.7761 26.3953 18.0711 27.6095 18.0508V16.3133H25.9429C25.4826 16.3133 25.1095 15.9402 25.1095 15.48C25.1095 15.0197 25.4826 14.6466 25.9429 14.6466H27.6095V12.98H25.9429C25.4826 12.98 25.1095 12.6069 25.1095 12.1466C25.1095 11.6864 25.4826 11.3133 25.9429 11.3133H27.6095V9.64664H25.9429C25.4826 9.64664 25.1095 9.27356 25.1095 8.81331C25.1095 8.35306 25.4826 7.97996 25.9429 7.97996H27.6095V7.46428C27.6095 5.98495 26.4903 4.78571 25.1095 4.78571C23.7288 4.78571 22.6095 5.98495 22.6095 7.46428V17.1655C23.0977 17.2158 23.6532 17.3599 24.2615 17.5176Z" fill="#009145"/>
</svg>
