<svg width="40" height="40" viewBox="0 0 40 40" fill="none" xmlns="http://www.w3.org/2000/svg">
<path d="M20.4584 31.6666C20.7917 31.6388 21.0765 31.5069 21.3126 31.2708C21.5487 31.0346 21.6667 30.7499 21.6667 30.4166C21.6667 30.0277 21.5417 29.7152 21.2917 29.4791C21.0417 29.243 20.7223 29.1388 20.3334 29.1666C19.1945 29.2499 17.9862 28.9374 16.7084 28.2291C15.4306 27.5208 14.6251 26.236 14.2917 24.3749C14.2362 24.0694 14.0904 23.8194 13.8542 23.6249C13.6181 23.4305 13.3473 23.3333 13.0417 23.3333C12.6529 23.3333 12.3334 23.4791 12.0834 23.7708C11.8334 24.0624 11.7501 24.4027 11.8334 24.7916C12.3056 27.3194 13.4167 29.1249 15.1667 30.2083C16.9167 31.2916 18.6806 31.7777 20.4584 31.6666ZM10.4792 32.7499C7.93758 30.1388 6.66675 26.8888 6.66675 22.9999C6.66675 20.2221 7.77091 17.2013 9.97925 13.9374C12.1876 10.6735 15.5279 7.13881 20.0001 3.33325C24.4723 7.13881 27.8126 10.6735 30.0209 13.9374C32.2292 17.2013 33.3334 20.2221 33.3334 22.9999C33.3334 26.8888 32.0626 30.1388 29.5209 32.7499C26.9792 35.361 23.8056 36.6666 20.0001 36.6666C16.1945 36.6666 13.0209 35.361 10.4792 32.7499ZM27.1667 30.3958C29.0556 28.4374 30.0001 25.9721 30.0001 22.9999C30.0001 20.9721 29.1598 18.6805 27.4792 16.1249C25.7987 13.5694 23.3056 10.7777 20.0001 7.74992C16.6945 10.7777 14.2015 13.5694 12.5209 16.1249C10.8404 18.6805 10.0001 20.9721 10.0001 22.9999C10.0001 25.9721 10.9445 28.4374 12.8334 30.3958C14.7223 32.3541 17.1112 33.3333 20.0001 33.3333C22.889 33.3333 25.2779 32.3541 27.1667 30.3958Z" fill="#009145"/>
</svg>
