<svg width="40" height="40" viewBox="0 0 40 40" fill="none" xmlns="http://www.w3.org/2000/svg">
<path d="M31.1596 18.2426C31.1596 17.0144 30.9612 15.8183 30.5847 14.6907C33.8336 15.1528 37.0208 15.9252 39.9999 17.188C38.4382 13.7173 34.3711 11.3225 30.9983 9.97106C27.8186 8.69693 24.3797 8.0654 20.9596 8H19.0402C15.6201 8.0654 12.1811 8.69693 9.00147 9.97106C5.62882 11.3225 1.56167 13.7173 0 17.188C2.97888 15.9253 6.16631 15.1529 9.41523 14.6907C9.03868 15.8183 8.84035 17.0144 8.84035 18.2426C8.84035 20.8461 9.73681 23.2439 11.2368 25.1444C7.36082 24.7263 3.53385 23.9176 0 22.4197C1.56167 25.8905 5.62882 28.2853 9.00156 29.6366C12.1812 30.9107 15.6202 31.5423 19.0403 31.6077H20.9596C24.3798 31.5423 27.8187 30.9107 30.9984 29.6366C34.3712 28.2853 38.4383 25.8905 40 22.4197C36.4661 23.9177 32.6392 24.7264 28.7632 25.1444C30.2631 23.2439 31.1596 20.8461 31.1596 18.2426ZM20.5086 15.7179C20.8577 15.369 21.6101 15.5558 22.1893 16.1351C22.7688 16.7145 22.9556 17.467 22.6064 17.8159C22.2577 18.1648 21.505 17.978 20.9258 17.3988C20.3467 16.8193 20.1599 16.067 20.5086 15.7179ZM19.1418 14.0596C17.1822 14.457 15.7067 16.1895 15.7067 18.267C15.7067 20.638 17.6288 22.5602 19.9999 22.5602C22.3709 22.5602 24.293 20.638 24.293 18.267C24.293 16.1896 22.8176 14.4571 20.8578 14.0596C22.5126 14.0696 24.1895 14.115 25.8686 14.2196C26.6728 15.3882 27.1134 16.7797 27.1134 18.2426C27.1134 22.1651 23.9221 25.3562 19.9997 25.3562C16.0773 25.3562 12.8859 22.1649 12.8859 18.2426C12.8859 16.7796 13.3267 15.3881 14.1308 14.2196C15.8101 14.115 17.487 14.0696 19.1418 14.0596Z" fill="#009145"/>
</svg>
