<svg width="40" height="40" viewBox="0 0 40 40" fill="none" xmlns="http://www.w3.org/2000/svg">
<path d="M16.9374 29.5625C15.9513 29.2708 15.0416 28.8472 14.2083 28.2917C12.986 28.2083 11.736 27.9444 10.4583 27.5C9.18047 27.0556 8.01381 26.3194 6.95825 25.2917C5.9027 24.2639 5.03464 22.9167 4.35409 21.25C3.67353 19.5833 3.33325 17.5 3.33325 15V14.1667C3.33325 13 3.73603 12.0139 4.54159 11.2083C5.34714 10.4028 6.33325 10 7.49992 10C8.58325 10 9.52075 10.375 10.3124 11.125C11.1041 11.875 11.5416 12.7778 11.6249 13.8333C12.4027 13.6111 13.0971 13.3333 13.7083 13C14.3194 12.6667 14.9444 12.3472 15.5833 12.0417C16.2221 11.7083 16.8888 11.4236 17.5833 11.1875C18.2777 10.9514 19.0833 10.8333 19.9999 10.8333C20.9444 10.8333 21.7569 10.9514 22.4374 11.1875C23.118 11.4236 23.7777 11.7083 24.4166 12.0417C25.0277 12.3472 25.6458 12.6667 26.2708 13C26.8958 13.3333 27.5971 13.6111 28.3749 13.8333C28.4583 12.75 28.8958 11.8403 29.6874 11.1042C30.4791 10.3681 31.4166 10 32.4999 10C33.6666 10 34.6527 10.4028 35.4583 11.2083C36.2638 12.0139 36.6666 13 36.6666 14.1667V15C36.6666 17.5 36.3263 19.5833 35.6458 21.25C34.9652 22.9167 34.0971 24.2639 33.0416 25.2917C31.986 26.3194 30.8194 27.0556 29.5416 27.5C28.2638 27.9444 27.0138 28.2083 25.7916 28.2917C24.9583 28.8472 24.0485 29.2708 23.0624 29.5625C22.0763 29.8542 21.0555 30 19.9999 30C18.9444 30 17.9235 29.8542 16.9374 29.5625ZM10.8333 24.9583C10.3055 24.125 9.89575 23.2153 9.60408 22.2292C9.31242 21.2431 9.16658 20.2222 9.16658 19.1667V14.1667C9.16658 13.6944 9.00686 13.2986 8.68742 12.9792C8.36797 12.6597 7.97214 12.5 7.49992 12.5C7.0277 12.5 6.63186 12.6597 6.31242 12.9792C5.99297 13.2986 5.83325 13.6944 5.83325 14.1667V15C5.83325 18.0556 6.34714 20.3333 7.37492 21.8333C8.4027 23.3333 9.55547 24.375 10.8333 24.9583ZM19.9999 27.5C22.3055 27.5 24.2708 26.6875 25.8958 25.0625C27.5208 23.4375 28.3333 21.4722 28.3333 19.1667V16.4167C27.3888 16.1944 26.5624 15.9306 25.8541 15.625C25.1458 15.3194 24.4999 14.9861 23.9166 14.625C23.1388 14.1528 22.4513 13.8194 21.8541 13.625C21.2569 13.4306 20.6388 13.3333 19.9999 13.3333C19.361 13.3333 18.743 13.4306 18.1458 13.625C17.5485 13.8194 16.861 14.1528 16.0833 14.625C15.4999 14.9583 14.8541 15.2917 14.1458 15.625C13.4374 15.9583 12.611 16.2222 11.6666 16.4167V19.1667C11.6666 21.4722 12.4791 23.4375 14.1041 25.0625C15.7291 26.6875 17.6944 27.5 19.9999 27.5ZM14.9999 18.75C15.611 18.5833 16.1388 18.3819 16.5833 18.1458C17.0277 17.9097 17.4444 17.6806 17.8333 17.4583C18.2221 17.2361 18.5763 17.0486 18.8958 16.8958C19.2152 16.7431 19.5833 16.6667 19.9999 16.6667C20.4166 16.6667 20.7846 16.7431 21.1041 16.8958C21.4235 17.0486 21.7777 17.2361 22.1666 17.4583C22.5555 17.6806 22.9652 17.9097 23.3958 18.1458C23.8263 18.3819 24.361 18.5833 24.9999 18.75V17C24.5833 16.8611 24.2221 16.7083 23.9166 16.5417L22.9999 16.0417C22.5555 15.7639 22.1041 15.5208 21.6458 15.3125C21.1874 15.1042 20.6388 15 19.9999 15C19.361 15 18.8124 15.1042 18.3541 15.3125C17.8958 15.5208 17.4305 15.7639 16.9583 16.0417L16.0416 16.5417C15.736 16.7083 15.3888 16.8611 14.9999 17V18.75ZM29.1666 24.9583C30.4444 24.375 31.5971 23.3333 32.6249 21.8333C33.6527 20.3333 34.1666 18.0556 34.1666 15V14.1667C34.1666 13.6944 34.0069 13.2986 33.6874 12.9792C33.368 12.6597 32.9721 12.5 32.4999 12.5C32.0277 12.5 31.6319 12.6597 31.3124 12.9792C30.993 13.2986 30.8333 13.6944 30.8333 14.1667V19.1667C30.8333 20.2222 30.6944 21.2431 30.4166 22.2292C30.1388 23.2153 29.7221 24.125 29.1666 24.9583Z" fill="#009145"/>
</svg>
