<svg width="40" height="40" viewBox="0 0 40 40" fill="none" xmlns="http://www.w3.org/2000/svg">
<path d="M3.33325 36.6667V33.3333C4.61103 33.3333 5.87492 33.25 7.12492 33.0833C8.37492 32.9167 9.59714 32.6111 10.7916 32.1667C9.51381 31.5278 8.50686 30.6042 7.77075 29.3958C7.03464 28.1875 6.66659 26.875 6.66659 25.4583V21.6667H13.3333V16.6667H18.9583L13.4999 5.75L16.4999 4.25L21.9583 15.1667C22.5138 16.2778 22.4721 17.3611 21.8333 18.4167C21.1944 19.4722 20.2499 20 18.9999 20H16.6666V21.6667C16.6666 22.5833 16.3402 23.3681 15.6874 24.0208C15.0346 24.6736 14.2499 25 13.3333 25H9.99992V25.4583C9.99992 26.4306 10.2985 27.2847 10.8958 28.0208C11.493 28.7569 12.2499 29.25 13.1666 29.5L13.6666 29.625C14.7777 29.9028 15.4027 30.5972 15.5416 31.7083C15.6805 32.8194 15.2499 33.6528 14.2499 34.2083C12.5833 35.125 10.8263 35.7639 8.97908 36.125C7.13186 36.4861 5.24992 36.6667 3.33325 36.6667ZM27.1666 31.9167L24.7916 29.5833C25.3749 29 25.8333 28.3264 26.1666 27.5625C26.4999 26.7986 26.6666 25.9722 26.6666 25.0833C26.6666 24.1944 26.4999 23.3681 26.1666 22.6042C25.8333 21.8403 25.3749 21.1667 24.7916 20.5833L27.1666 18.2083C28.0555 19.0972 28.7499 20.1319 29.2499 21.3125C29.7499 22.4931 29.9999 23.75 29.9999 25.0833C29.9999 26.4167 29.7499 27.6667 29.2499 28.8333C28.7499 30 28.0555 31.0278 27.1666 31.9167ZM31.8749 36.6667L29.4999 34.2917C30.6944 33.0972 31.6319 31.7153 32.3124 30.1458C32.993 28.5764 33.3333 26.8889 33.3333 25.0833C33.3333 23.25 32.993 21.5556 32.3124 20C31.6319 18.4444 30.6944 17.0694 29.4999 15.875L31.8749 13.5C33.3749 15 34.5485 16.7361 35.3958 18.7083C36.243 20.6806 36.6666 22.8056 36.6666 25.0833C36.6666 27.3333 36.243 29.4514 35.3958 31.4375C34.5485 33.4236 33.3749 35.1667 31.8749 36.6667Z" fill="#009145"/>
</svg>
