<svg width="40" height="40" viewBox="0 0 40 40" fill="none" xmlns="http://www.w3.org/2000/svg">
<path d="M26.2708 12.0623C25.4235 11.2151 24.9999 10.2498 24.9999 9.1665C24.9999 8.19428 25.3194 7.11789 25.9583 5.93734C26.5971 4.75678 27.6666 3.33317 29.1666 1.6665C30.6666 3.33317 31.736 4.75678 32.3749 5.93734C33.0138 7.11789 33.3333 8.19428 33.3333 9.1665C33.3333 10.2498 32.9096 11.2151 32.0624 12.0623C31.2152 12.9096 30.2499 13.3332 29.1666 13.3332C28.0833 13.3332 27.118 12.9096 26.2708 12.0623ZM9.99992 36.6665C8.16658 36.6665 6.59714 36.0137 5.29159 34.7082C3.98603 33.4026 3.33325 31.8332 3.33325 29.9998V20.9998C3.33325 20.1387 3.53464 19.3401 3.93742 18.604C4.3402 17.8679 4.9027 17.2637 5.62492 16.7915L19.3749 7.87484L20.2083 8.70817C20.7638 9.26373 21.0902 9.92345 21.1874 10.6873C21.2846 11.4512 21.1249 12.1665 20.7083 12.8332L18.8333 15.8332H31.6666C32.1388 15.8332 32.5346 15.9929 32.8541 16.3123C33.1735 16.6318 33.3333 17.0276 33.3333 17.4998C33.3333 17.9721 33.1735 18.3679 32.8541 18.6873C32.5346 19.0068 32.1388 19.1665 31.6666 19.1665H12.8333L16.0416 13.9998L7.41659 19.5832C7.16659 19.7221 6.97909 19.9165 6.85409 20.1665C6.72909 20.4165 6.66659 20.6943 6.66659 20.9998V29.9998C6.66659 30.9165 6.99297 31.7012 7.64575 32.354C8.29853 33.0068 9.08325 33.3332 9.99992 33.3332H29.9999C30.4721 33.3332 30.868 33.4929 31.1874 33.8123C31.5069 34.1318 31.6666 34.5276 31.6666 34.9998C31.6666 35.4721 31.5069 35.8679 31.1874 36.1873C30.868 36.5068 30.4721 36.6665 29.9999 36.6665H9.99992ZM19.9999 24.9998V21.6665H34.9999C35.4721 21.6665 35.868 21.8262 36.1874 22.1457C36.5069 22.4651 36.6666 22.8609 36.6666 23.3332C36.6666 23.8054 36.5069 24.2012 36.1874 24.5207C35.868 24.8401 35.4721 24.9998 34.9999 24.9998H19.9999ZM19.9999 30.8332V27.4998H33.3333C33.8055 27.4998 34.2013 27.6596 34.5208 27.979C34.8402 28.2984 34.9999 28.6943 34.9999 29.1665C34.9999 29.6387 34.8402 30.0346 34.5208 30.354C34.2013 30.6734 33.8055 30.8332 33.3333 30.8332H19.9999Z" fill="#009145"/>
</svg>
