<svg width="40" height="40" viewBox="0 0 40 40" fill="none" xmlns="http://www.w3.org/2000/svg">
<path d="M14.9999 11.6668L16.6666 8.3335V6.66683H14.9999V3.3335H24.9999C25.4721 3.3335 25.868 3.49322 26.1874 3.81266C26.5069 4.13211 26.6666 4.52794 26.6666 5.00016V6.66683L24.9999 10.0002H19.9999V8.3335L16.6666 11.6668H14.9999ZM13.3333 36.6668V25.2502C13.3333 24.9446 13.3819 24.6182 13.4791 24.271C13.5763 23.9238 13.6944 23.6113 13.8333 23.3335L19.9999 11.6668H24.9999C25.3888 12.0557 25.7638 12.5766 26.1249 13.2293C26.486 13.8821 26.6666 14.4724 26.6666 15.0002V36.6668H13.3333ZM16.6666 33.3335H23.3333V15.0002H21.9999L16.6666 25.1668V33.3335Z" fill="#009145"/>
</svg>
