<svg width="40" height="40" viewBox="0 0 40 40" fill="none" xmlns="http://www.w3.org/2000/svg">
<path d="M3.625 16.8335C4.34722 12.9446 6.22917 9.72238 9.27083 7.16683C12.3125 4.61127 15.8889 3.3335 20 3.3335C22.0556 3.3335 23.9931 3.66683 25.8125 4.3335C27.6319 5.00016 29.2639 5.94461 30.7083 7.16683C30.3194 7.88905 30.0069 8.50711 29.7708 9.021C29.5347 9.53488 29.375 10.0141 29.2917 10.4585C28.0694 9.29183 26.6667 8.36822 25.0833 7.68766C23.5 7.00711 21.8056 6.66683 20 6.66683C17.1944 6.66683 14.6806 7.45155 12.4583 9.021C10.2361 10.5904 8.625 12.5974 7.625 15.0418C6.875 15.0141 6.14583 15.1529 5.4375 15.4585C4.72917 15.7641 4.125 16.2224 3.625 16.8335ZM20 36.6668C15.8889 36.6668 12.3125 35.389 9.27083 32.8335C6.22917 30.2779 4.34722 27.0557 3.625 23.1668C4.09722 23.7779 4.6875 24.2432 5.39583 24.5627C6.10417 24.8821 6.84722 25.0279 7.625 25.0002C8.625 27.4446 10.2361 29.4446 12.4583 31.0002C14.6806 32.5557 17.1944 33.3335 20 33.3335C23.6944 33.3335 26.8403 32.0349 29.4375 29.4377C32.0347 26.8404 33.3333 23.6946 33.3333 20.0002C33.3333 19.5279 33.3125 19.0557 33.2708 18.5835C33.2292 18.1113 33.1528 17.6391 33.0417 17.1668C33.3472 17.2779 33.6597 17.3613 33.9792 17.4168C34.2986 17.4724 34.6389 17.5002 35 17.5002C35.25 17.5002 35.5 17.4863 35.75 17.4585C36 17.4307 36.2361 17.3891 36.4583 17.3335C36.5139 17.7779 36.5625 18.2154 36.6042 18.646C36.6458 19.0766 36.6667 19.5279 36.6667 20.0002C36.6667 22.3057 36.2292 24.4724 35.3542 26.5002C34.4792 28.5279 33.2917 30.2918 31.7917 31.7918C30.2917 33.2918 28.5278 34.4793 26.5 35.3543C24.4722 36.2293 22.3056 36.6668 20 36.6668ZM14 19.3335L17.5 15.8335L13.9583 12.2918L12.2083 14.0418L14 15.7918L12.2083 17.5835L14 19.3335ZM32.6458 14.021C31.9931 13.3682 31.6667 12.5835 31.6667 11.6668C31.6667 10.9168 31.875 10.1182 32.2917 9.271C32.7083 8.42377 33.6111 7.00016 35 5.00016C36.3889 7.00016 37.2917 8.42377 37.7083 9.271C38.125 10.1182 38.3333 10.9168 38.3333 11.6668C38.3333 12.5835 38.0069 13.3682 37.3542 14.021C36.7014 14.6738 35.9167 15.0002 35 15.0002C34.0833 15.0002 33.2986 14.6738 32.6458 14.021ZM26.0417 19.3752L27.8333 17.5835L26.0417 15.7918L27.7917 14.0418L26.0417 12.2918L22.5 15.8335L26.0417 19.3752ZM20 22.5002C19.2778 22.5002 18.5764 22.5835 17.8958 22.7502C17.2153 22.9168 16.5694 23.1529 15.9583 23.4585L10 20.0002C10 19.5557 9.88889 19.1391 9.66667 18.7502C9.44444 18.3613 9.13889 18.0557 8.75 17.8335C8.13889 17.5002 7.50694 17.4238 6.85417 17.6043C6.20139 17.7849 5.69444 18.1668 5.33333 18.7502C5 19.3613 4.92361 19.9932 5.10417 20.646C5.28472 21.2988 5.66667 21.8057 6.25 22.1668C6.63889 22.3891 7.05556 22.5002 7.5 22.5002C7.94444 22.5002 8.36111 22.3891 8.75 22.1668L13.7083 25.0418C13.2361 25.5141 12.8125 26.021 12.4375 26.5627C12.0625 27.1043 11.75 27.6946 11.5 28.3335H14.25C14.8333 27.3335 15.625 26.5279 16.625 25.9168C17.625 25.3057 18.75 25.0002 20 25.0002C21.25 25.0002 22.375 25.3057 23.375 25.9168C24.375 26.5279 25.1667 27.3335 25.75 28.3335H28.5C27.8333 26.6113 26.7431 25.2085 25.2292 24.1252C23.7153 23.0418 21.9722 22.5002 20 22.5002Z" fill="#009145"/>
</svg>
