<svg width="40" height="40" viewBox="0 0 40 40" fill="none" xmlns="http://www.w3.org/2000/svg">
<path d="M19.1666 33.3333C17.7777 33.3333 16.5971 32.8472 15.6249 31.875C14.6527 30.9028 14.1666 29.7222 14.1666 28.3333H17.4999C17.4999 28.8056 17.6596 29.2014 17.9791 29.5208C18.2985 29.8403 18.6944 30 19.1666 30C19.6388 30 20.0346 29.8403 20.3541 29.5208C20.6735 29.2014 20.8333 28.8056 20.8333 28.3333C20.8333 27.8611 20.6735 27.4653 20.3541 27.1458C20.0346 26.8264 19.6388 26.6667 19.1666 26.6667H3.33325V23.3333H19.1666C20.5555 23.3333 21.736 23.8194 22.7083 24.7917C23.6805 25.7639 24.1666 26.9444 24.1666 28.3333C24.1666 29.7222 23.6805 30.9028 22.7083 31.875C21.736 32.8472 20.5555 33.3333 19.1666 33.3333ZM3.33325 16.6667V13.3333H25.8333C26.5555 13.3333 27.1527 13.0972 27.6249 12.625C28.0971 12.1528 28.3333 11.5556 28.3333 10.8333C28.3333 10.1111 28.0971 9.51389 27.6249 9.04167C27.1527 8.56944 26.5555 8.33333 25.8333 8.33333C25.111 8.33333 24.5138 8.56944 24.0416 9.04167C23.5694 9.51389 23.3333 10.1111 23.3333 10.8333H19.9999C19.9999 9.19444 20.5624 7.8125 21.6874 6.6875C22.8124 5.5625 24.1944 5 25.8333 5C27.4721 5 28.8541 5.5625 29.9791 6.6875C31.1041 7.8125 31.6666 9.19444 31.6666 10.8333C31.6666 12.4722 31.1041 13.8542 29.9791 14.9792C28.8541 16.1042 27.4721 16.6667 25.8333 16.6667H3.33325ZM30.8333 30V26.6667C31.5555 26.6667 32.1527 26.4306 32.6249 25.9583C33.0971 25.4861 33.3333 24.8889 33.3333 24.1667C33.3333 23.4444 33.0971 22.8472 32.6249 22.375C32.1527 21.9028 31.5555 21.6667 30.8333 21.6667H3.33325V18.3333H30.8333C32.4721 18.3333 33.8541 18.8958 34.9791 20.0208C36.1041 21.1458 36.6666 22.5278 36.6666 24.1667C36.6666 25.8056 36.1041 27.1875 34.9791 28.3125C33.8541 29.4375 32.4721 30 30.8333 30Z" fill="#009145"/>
</svg>
