<svg width="74" height="64" viewBox="0 0 74 64" fill="none" xmlns="http://www.w3.org/2000/svg">
<path d="M0 63.3333L36.6667 0L73.3333 63.3333H0ZM11.5 56.6667H61.8333L36.6667 13.3333L11.5 56.6667ZM39.0417 52.375C39.6806 51.7361 40 50.9444 40 50C40 49.0556 39.6806 48.2639 39.0417 47.625C38.4028 46.9861 37.6111 46.6667 36.6667 46.6667C35.7222 46.6667 34.9306 46.9861 34.2917 47.625C33.6528 48.2639 33.3333 49.0556 33.3333 50C33.3333 50.9444 33.6528 51.7361 34.2917 52.375C34.9306 53.0139 35.7222 53.3333 36.6667 53.3333C37.6111 53.3333 38.4028 53.0139 39.0417 52.375ZM33.3333 43.3333H40V26.6667H33.3333V43.3333Z" fill="#E3E3E3"/>
</svg>
