<svg width="56" height="56" viewBox="0 0 56 56" fill="none" xmlns="http://www.w3.org/2000/svg">
<path d="M18.6667 53.6667L14.9333 50.8667L21 42.7583V30.3333C21 29.1278 21.0972 27.8153 21.2917 26.3958C21.4861 24.9764 21.7778 23.6639 22.1667 22.4583L18.6667 24.3833V32.6667H14V21.7L24.2667 15.8667C25.2389 15.3222 26.0847 14.9042 26.8042 14.6125C27.5236 14.3208 28.1944 14.175 28.8167 14.175C29.7889 14.175 30.6736 14.5931 31.4708 15.4292C32.2681 16.2653 33.1917 17.5778 34.2417 19.3667C35.4861 21.4667 36.6139 23.0417 37.625 24.0917C38.6361 25.1417 39.725 25.9389 40.8917 26.4833C41.3194 26.1722 41.6889 25.9583 42 25.8417C42.3111 25.725 42.6806 25.6667 43.1083 25.6667C44.0806 25.6667 44.9167 26.0167 45.6167 26.7167C46.3167 27.4167 46.6667 28.2333 46.6667 29.1667V53.6667H44.3333V29.1667C44.3333 28.8556 44.2167 28.5833 43.9833 28.35C43.75 28.1167 43.4778 28 43.1667 28C42.8556 28 42.5833 28.1167 42.35 28.35C42.1167 28.5833 42 28.8556 42 29.1667V32.0833H39.6667V30.975C37.5667 30.0806 35.9333 29.0792 34.7667 27.9708C33.6 26.8625 32.5694 25.375 31.675 23.5083C31.2472 24.5972 30.9069 25.9292 30.6542 27.5042C30.4014 29.0792 30.3139 30.5667 30.3917 31.9667L35 38.5V53.6667H30.3333V42L26.1917 36.05L25.6667 44.3333L18.6667 53.6667ZM31.5 12.8333C30.2167 12.8333 29.1181 12.3764 28.2042 11.4625C27.2903 10.5486 26.8333 9.45 26.8333 8.16667C26.8333 6.88333 27.2903 5.78472 28.2042 4.87083C29.1181 3.95694 30.2167 3.5 31.5 3.5C32.7833 3.5 33.8819 3.95694 34.7958 4.87083C35.7097 5.78472 36.1667 6.88333 36.1667 8.16667C36.1667 9.45 35.7097 10.5486 34.7958 11.4625C33.8819 12.3764 32.7833 12.8333 31.5 12.8333Z" fill="#20244C"/>
</svg>
