<svg width="56" height="56" viewBox="0 0 56 56" fill="none" xmlns="http://www.w3.org/2000/svg">
<path d="M22.421 27.3214C22.421 26.1799 21.4948 25.2554 20.3551 25.2554C19.2136 25.2554 18.2883 26.1799 18.2883 27.3214C18.2883 28.4619 19.2136 29.388 20.3551 29.388C21.4949 29.3881 22.421 28.4619 22.421 27.3214Z" fill="#20244C"/>
<path d="M37.7118 27.3214C37.7118 26.1799 36.7856 25.2554 35.6459 25.2554C34.5044 25.2554 33.5791 26.1799 33.5791 27.3214C33.5791 28.4619 34.5044 29.388 35.6459 29.388C36.7858 29.3881 37.7118 28.4619 37.7118 27.3214Z" fill="#20244C"/>
<path d="M54.0315 23.8109C52.9313 22.7099 51.4369 21.9881 49.7857 21.867C48.7536 17.0134 46.1558 12.739 42.548 9.59982C38.6062 6.17091 33.4446 4.09082 27.8097 4.09082C22.1834 4.09082 17.029 6.16457 13.0896 9.5833C9.45963 12.7328 6.84994 17.0292 5.82422 21.9075C4.32666 22.103 2.97861 22.7971 1.96459 23.811C0.752719 25.0228 0 26.712 0 28.5625C0 30.4099 0.752719 32.099 1.96459 33.3109C3.17647 34.5228 4.86631 35.2763 6.71694 35.2763C6.84359 35.2763 6.96784 35.2731 7.09209 35.2667C8.70997 39.1104 11.3632 42.4111 14.7043 44.8165C16.2414 45.9231 17.9281 46.8405 19.7265 47.5346C19.5089 46.7755 19.3972 45.9785 19.3972 45.1664C19.3972 44.7919 19.4226 44.4168 19.4716 44.0511C18.43 43.5547 17.4414 42.9666 16.5144 42.3002C13.3341 40.012 10.8732 36.7793 9.54264 33.0195L9.06303 31.6621L7.67473 32.0436C7.35492 32.1299 7.03839 32.1766 6.71694 32.1766C5.71331 32.1766 4.81644 31.7736 4.15942 31.1167C3.50328 30.4589 3.09958 29.5638 3.09958 28.5624C3.09958 27.5579 3.50328 26.662 4.15942 26.005C4.81644 25.3481 5.7132 24.9451 6.71694 24.9451C6.77863 24.9451 6.87203 24.9515 7.00197 24.9602L8.44331 25.0718L8.6578 23.6471C9.35758 18.9904 11.7194 14.8776 15.1199 11.9269C15.97 11.1899 16.8835 10.5259 17.8523 9.94326C17.9362 10.4689 18.066 10.9612 18.2465 11.4131C18.5323 12.1311 18.9327 12.7532 19.407 13.2843C20.2396 14.216 21.2813 14.8721 22.3672 15.4096C24.0002 16.2113 25.7636 16.7671 27.2454 17.4597C27.9862 17.8032 28.6535 18.1768 29.1997 18.6074C29.7484 19.0404 30.1757 19.52 30.4804 20.1042C30.6451 20.42 30.9711 20.6131 31.3274 20.6051C31.6836 20.5965 32.0002 20.3882 32.1497 20.0645C33.7573 16.5818 34.3368 13.8415 34.3376 11.6893C34.3399 10.2202 34.0629 9.03216 33.6735 8.09657C36.2206 8.90551 38.5407 10.2242 40.5139 11.9387C43.9175 14.8999 46.2732 19.0221 46.9681 23.6898L47.1976 25.227L48.7348 24.9918C48.9397 24.9602 49.1194 24.9451 49.2832 24.9451C50.2877 24.9451 51.1805 25.3481 51.8407 26.005C52.4976 26.662 52.8981 27.558 52.9005 28.5624C52.8981 29.5637 52.4976 30.4588 51.8407 31.1167C51.1805 31.7736 50.2877 32.1766 49.2832 32.1766C48.8677 32.1766 48.4718 32.1013 48.0872 31.9692L46.618 31.4508L46.1059 32.9199C44.7928 36.7049 42.3343 39.9629 39.1475 42.2687C38.3141 42.8727 37.4315 43.4124 36.5038 43.8778C36.5688 44.3022 36.6004 44.7303 36.6004 45.1665C36.6004 45.92 36.5038 46.6577 36.317 47.3678C37.976 46.6863 39.5355 45.8148 40.964 44.7794C44.2893 42.3708 46.9306 39.0756 48.5397 35.2327C48.7812 35.2605 49.032 35.2763 49.283 35.2763C51.1343 35.2763 52.8195 34.5227 54.0314 33.3109C55.2441 32.0991 56 30.4099 56 28.5625C56 26.712 55.2441 25.0228 54.0315 23.8109ZM24.2414 14.2192C22.8926 13.6509 21.7102 13.016 20.9075 12.1699C20.5054 11.7456 20.1888 11.2715 19.9625 10.6976C19.7772 10.2203 19.657 9.66304 19.6205 9.00613C20.8379 8.43695 22.1233 7.98818 23.4633 7.68105C23.4698 8.73379 23.7142 10.3817 24.7623 12.3622C25.2293 13.2503 25.8578 14.2017 26.6905 15.1991C25.8578 14.8635 25.0242 14.5509 24.2414 14.2192ZM31.3557 17.132C28.7388 15.0281 27.25 13.0921 26.4071 11.494C25.489 9.75415 25.3243 8.40938 25.3218 7.63052C25.3218 7.52607 25.3258 7.43419 25.3306 7.35118C26.1418 7.24749 26.969 7.1904 27.8097 7.1904C28.948 7.1904 30.0624 7.29255 31.1467 7.48013C31.2576 7.60985 31.3747 7.75871 31.4918 7.9336C31.9809 8.67604 32.4749 9.84198 32.4773 11.6894C32.478 13.0849 32.1845 14.8769 31.3557 17.132Z" fill="#20244C"/>
<path d="M27.9995 38.4268C26.1434 38.4261 24.4471 39.1843 23.2329 40.4017C22.0154 41.6159 21.2573 43.3122 21.2588 45.1683C21.2573 47.0244 22.0154 48.7207 23.2329 49.935C24.4471 51.1523 26.1434 51.9099 27.9995 51.909C29.8557 51.9097 31.5519 51.1523 32.766 49.935C33.9834 48.7207 34.7417 47.0245 34.74 45.1683C34.7417 43.3122 33.9834 41.6159 32.766 40.4017C31.5519 39.1843 29.8557 38.426 27.9995 38.4268ZM31.1356 46.4925C30.8783 47.1004 30.4453 47.6236 29.9007 47.9908C29.3563 48.3582 28.7103 48.5703 27.9995 48.5711C27.5246 48.5703 27.0813 48.4753 26.676 48.3035C26.0674 48.0471 25.5441 47.6133 25.1769 47.0695C24.8097 46.5241 24.5976 45.8783 24.5976 45.1682C24.5976 44.6933 24.6925 44.2501 24.8635 43.844C25.1207 43.2361 25.5545 42.7128 26.0982 42.3457C26.6428 41.9784 27.2895 41.7662 27.9995 41.7655C28.4744 41.7663 28.9169 41.8612 29.3237 42.0323C29.9323 42.2896 30.4548 42.7233 30.8221 43.267C31.1894 43.8116 31.4015 44.4582 31.4022 45.1683C31.4015 45.6423 31.3065 46.0855 31.1356 46.4925Z" fill="#20244C"/>
<path d="M27.9995 34.3833C23.4213 34.3833 19.709 36.6027 19.709 39.3423C19.709 40.1607 20.0398 40.9332 20.6288 41.6147C20.985 41.0259 21.4196 40.4742 21.919 39.9748C23.5401 38.3514 25.6993 37.4553 27.9972 37.4553C30.3029 37.4553 32.4606 38.3513 34.0848 39.9787C34.5835 40.4742 35.014 41.0259 35.371 41.6147C35.959 40.9332 36.2915 40.1607 36.2915 39.3423C36.2917 36.6027 32.581 34.3833 27.9995 34.3833Z" fill="#20244C"/>
</svg>
