<svg width="56" height="56" viewBox="0 0 56 56" fill="none" xmlns="http://www.w3.org/2000/svg">
<path d="M11.6666 46.6667V25.3167L5.13325 30.3333L2.33325 26.6L27.9999 7L37.3333 14.1167V9.33333H44.3333V19.4833L53.6666 26.6L50.8666 30.3333L44.3333 25.3167V46.6667H30.3333V32.6667H25.6666V46.6667H11.6666ZM16.3333 42H20.9999V28H34.9999V42H39.6666V21.7583L27.9999 12.8917L16.3333 21.7583V42ZM23.3333 23.3917H32.6666C32.6666 22.1472 32.1999 21.1264 31.2666 20.3292C30.3333 19.5319 29.2444 19.1333 27.9999 19.1333C26.7555 19.1333 25.6666 19.5319 24.7333 20.3292C23.7999 21.1264 23.3333 22.1472 23.3333 23.3917Z" fill="#20244C"/>
</svg>
