<svg width="56" height="56" viewBox="0 0 56 56" fill="none" xmlns="http://www.w3.org/2000/svg">
<path d="M7 49V16.3333H16.3333V7H39.6667V25.6667H49V49H30.3333V39.6667H25.6667V49H7ZM11.6667 44.3333H16.3333V39.6667H11.6667V44.3333ZM11.6667 35H16.3333V30.3333H11.6667V35ZM11.6667 25.6667H16.3333V21H11.6667V25.6667ZM21 35H25.6667V30.3333H21V35ZM21 25.6667H25.6667V21H21V25.6667ZM21 16.3333H25.6667V11.6667H21V16.3333ZM30.3333 35H35V30.3333H30.3333V35ZM30.3333 25.6667H35V21H30.3333V25.6667ZM30.3333 16.3333H35V11.6667H30.3333V16.3333ZM39.6667 44.3333H44.3333V39.6667H39.6667V44.3333ZM39.6667 35H44.3333V30.3333H39.6667V35Z" fill="#20244C"/>
</svg>
