<svg width="56" height="56" viewBox="0 0 56 56" fill="none" xmlns="http://www.w3.org/2000/svg">
<path d="M2.33325 48.9998L27.9999 4.6665L53.6666 48.9998H2.33325ZM10.3833 44.3332H45.6166L27.9999 13.9998L10.3833 44.3332ZM29.6624 41.329C30.1096 40.8818 30.3333 40.3276 30.3333 39.6665C30.3333 39.0054 30.1096 38.4512 29.6624 38.004C29.2152 37.5568 28.661 37.3332 27.9999 37.3332C27.3388 37.3332 26.7846 37.5568 26.3374 38.004C25.8902 38.4512 25.6666 39.0054 25.6666 39.6665C25.6666 40.3276 25.8902 40.8818 26.3374 41.329C26.7846 41.7762 27.3388 41.9998 27.9999 41.9998C28.661 41.9998 29.2152 41.7762 29.6624 41.329ZM25.6666 34.9998H30.3333V23.3332H25.6666V34.9998Z" fill="#20244C"/>
</svg>
