<svg width="56" height="56" viewBox="0 0 56 56" fill="none" xmlns="http://www.w3.org/2000/svg">
<path d="M35.0001 51.3332C34.339 51.3332 33.7848 51.1096 33.3376 50.6623C32.8904 50.2151 32.6667 49.6609 32.6667 48.9998V46.4915C31.7723 46.3359 30.9265 46.1123 30.1292 45.8207C29.332 45.529 28.5834 45.1304 27.8834 44.6248L25.5501 46.9582C25.0834 47.3859 24.5292 47.6096 23.8876 47.629C23.2459 47.6484 22.6917 47.4248 22.2251 46.9582C21.7584 46.4915 21.5251 45.9373 21.5251 45.2957C21.5251 44.654 21.7584 44.0998 22.2251 43.6332L24.6167 41.2415C24.5001 41.0471 24.3834 40.8429 24.2667 40.629C24.1501 40.4151 24.0334 40.2109 23.9167 40.0165L22.3417 36.9248L19.4834 39.7832C19.0167 40.2109 18.4723 40.4346 17.8501 40.454C17.2279 40.4734 16.6834 40.2498 16.2167 39.7832C15.7501 39.3165 15.5167 38.7721 15.5167 38.1498C15.5167 37.5276 15.7501 36.9832 16.2167 36.5165L19.0751 33.5998L15.9834 32.0832C15.789 32.0054 15.614 31.9179 15.4584 31.8207C15.3029 31.7234 15.1279 31.6165 14.9334 31.4998L12.8334 33.5998C12.3667 34.0276 11.8126 34.2512 11.1709 34.2707C10.5292 34.2901 9.97508 34.0665 9.50841 33.5998C9.04175 33.1332 8.80841 32.5887 8.80841 31.9665C8.80841 31.3443 9.04175 30.7998 9.50841 30.3332L11.5501 28.2915C11.0056 27.5526 10.5681 26.7651 10.2376 25.929C9.90703 25.0929 9.66397 24.2276 9.50841 23.3332H7.00008C6.33897 23.3332 5.7848 23.1096 5.33758 22.6623C4.89036 22.2151 4.66675 21.6609 4.66675 20.9998C4.66675 20.3387 4.89036 19.7846 5.33758 19.3373C5.7848 18.8901 6.33897 18.6665 7.00008 18.6665H9.62508C9.81953 17.9276 10.0529 17.2276 10.3251 16.5665C10.5973 15.9054 10.9473 15.2637 11.3751 14.6415L9.33341 12.5998C8.86675 12.1332 8.63341 11.5887 8.63341 10.9665C8.63341 10.3443 8.86675 9.79984 9.33341 9.33317C9.80008 8.8665 10.3445 8.63317 10.9667 8.63317C11.589 8.63317 12.1334 8.8665 12.6001 9.33317L14.6417 11.3748C15.264 10.9471 15.9056 10.5971 16.5667 10.3248C17.2279 10.0526 17.9279 9.81928 18.6667 9.62484V6.99984C18.6667 6.33873 18.8904 5.78456 19.3376 5.33734C19.7848 4.89012 20.339 4.6665 21.0001 4.6665C21.6612 4.6665 22.2154 4.89012 22.6626 5.33734C23.1098 5.78456 23.3334 6.33873 23.3334 6.99984V9.50817C24.2667 9.66373 25.1515 9.9165 25.9876 10.2665C26.8237 10.6165 27.6112 11.0637 28.3501 11.6082L30.3917 9.5665C30.8584 9.09984 31.4126 8.8665 32.0542 8.8665C32.6959 8.8665 33.2501 9.09984 33.7167 9.5665C34.1834 10.0332 34.4167 10.5776 34.4167 11.1998C34.4167 11.8221 34.1834 12.3665 33.7167 12.8332L31.5584 14.9915C31.6362 15.1471 31.7237 15.3026 31.8209 15.4582C31.9181 15.6137 32.0056 15.7887 32.0834 15.9832L33.5417 18.8998L36.2251 16.2165C36.6917 15.7498 37.2459 15.5165 37.8876 15.5165C38.5292 15.5165 39.0834 15.7498 39.5501 16.2165C40.0167 16.6832 40.2501 17.2373 40.2501 17.879C40.2501 18.5207 40.0167 19.0748 39.5501 19.5415L36.7501 22.2832L40.0167 23.9165C40.2501 24.0332 40.4931 24.1596 40.7459 24.2957C40.9987 24.4318 41.2223 24.5776 41.4167 24.7332L43.7501 22.3998C44.2167 21.9332 44.7612 21.6998 45.3834 21.6998C46.0056 21.6998 46.5501 21.9332 47.0167 22.3998C47.4834 22.8665 47.7167 23.4207 47.7167 24.0623C47.7167 24.704 47.4834 25.2582 47.0167 25.7248L44.6834 27.9998C45.1501 28.6998 45.5292 29.4387 45.8209 30.2165C46.1126 30.9943 46.3362 31.8109 46.4917 32.6665H49.0001C49.6612 32.6665 50.2154 32.8901 50.6626 33.3373C51.1098 33.7846 51.3334 34.3387 51.3334 34.9998C51.3334 35.6609 51.1098 36.2151 50.6626 36.6623C50.2154 37.1096 49.6612 37.3332 49.0001 37.3332H46.3751C46.1806 38.0721 45.9473 38.7623 45.6751 39.404C45.4029 40.0457 45.0529 40.6776 44.6251 41.2998L46.6084 43.2832C47.0751 43.7498 47.3084 44.304 47.3084 44.9457C47.3084 45.5873 47.0751 46.1415 46.6084 46.6082C46.1417 47.0359 45.5876 47.2596 44.9459 47.279C44.3042 47.2984 43.7501 47.0748 43.2834 46.6082L41.3584 44.6248C40.7362 45.0526 40.0945 45.4026 39.4334 45.6748C38.7723 45.9471 38.0723 46.1804 37.3334 46.3748V48.9998C37.3334 49.6609 37.1098 50.2151 36.6626 50.6623C36.2154 51.1096 35.6612 51.3332 35.0001 51.3332ZM34.6501 41.9998C36.9056 41.9998 38.7626 41.1443 40.2209 39.4332C41.6792 37.7221 42.2334 35.7387 41.8834 33.4832C41.689 32.3165 41.2515 31.2665 40.5709 30.3332C39.8904 29.3998 39.0056 28.6609 37.9167 28.1165L34.0667 26.1332C33.1723 25.6665 32.3654 25.0734 31.6459 24.354C30.9265 23.6346 30.3334 22.8276 29.8667 21.9332L27.8834 18.0832C27.2612 16.8387 26.3667 15.8471 25.2001 15.1082C24.0334 14.3693 22.7501 13.9998 21.3501 13.9998C19.0945 13.9998 17.2376 14.8554 15.7792 16.5665C14.3209 18.2776 13.7667 20.2609 14.1167 22.5165C14.3112 23.6832 14.7487 24.7332 15.4292 25.6665C16.1098 26.5998 16.9945 27.3387 18.0834 27.8832L21.9334 29.8665C22.8279 30.3332 23.6348 30.9262 24.3542 31.6457C25.0737 32.3651 25.6667 33.1721 26.1334 34.0665L28.1167 37.9165C28.739 39.1609 29.6334 40.1526 30.8001 40.8915C31.9667 41.6304 33.2501 41.9998 34.6501 41.9998ZM22.1667 24.4998C23.139 24.4998 23.9654 24.1596 24.6459 23.479C25.3265 22.7984 25.6667 21.9721 25.6667 20.9998C25.6667 20.0276 25.3265 19.2012 24.6459 18.5207C23.9654 17.8401 23.139 17.4998 22.1667 17.4998C21.1945 17.4998 20.3681 17.8401 19.6876 18.5207C19.007 19.2012 18.6667 20.0276 18.6667 20.9998C18.6667 21.9721 19.007 22.7984 19.6876 23.479C20.3681 24.1596 21.1945 24.4998 22.1667 24.4998ZM35.9042 38.2373C36.4681 37.6734 36.7501 36.9832 36.7501 36.1665C36.7501 35.3498 36.4681 34.6596 35.9042 34.0957C35.3404 33.5318 34.6501 33.2498 33.8334 33.2498C33.0167 33.2498 32.3265 33.5318 31.7626 34.0957C31.1987 34.6596 30.9167 35.3498 30.9167 36.1665C30.9167 36.9832 31.1987 37.6734 31.7626 38.2373C32.3265 38.8012 33.0167 39.0832 33.8334 39.0832C34.6501 39.0832 35.3404 38.8012 35.9042 38.2373Z" fill="#20244C"/>
</svg>
