<svg width="67" height="64" viewBox="0 0 67 64" fill="none" xmlns="http://www.w3.org/2000/svg">
<path d="M10 63.3333C7.16667 63.3333 4.79167 62.375 2.875 60.4583C0.958333 58.5417 0 56.1667 0 53.3333V39.4167L8.75 16C9.41667 14.1667 10.5833 12.7083 12.25 11.625C13.9167 10.5417 15.7222 10 17.6667 10C20.1667 10 22.2917 10.9028 24.0417 12.7083C25.7917 14.5139 26.6667 16.6944 26.6667 19.25V23.3333H20V19.25C20 18.5278 19.75 17.9167 19.25 17.4167C18.75 16.9167 18.1667 16.6667 17.5 16.6667C16.9444 16.6667 16.4306 16.8194 15.9583 17.125C15.4861 17.4306 15.1667 17.8333 15 18.3333L6.66667 40.6667V53.3333C6.66667 54.2778 6.98611 55.0694 7.625 55.7083C8.26389 56.3472 9.05556 56.6667 10 56.6667H20C20.9444 56.6667 21.7361 56.3472 22.375 55.7083C23.0139 55.0694 23.3333 54.2778 23.3333 53.3333V46.6667H30V53.3333C30 56.1667 29.0278 58.5417 27.0833 60.4583C25.1389 62.375 22.7778 63.3333 20 63.3333H10ZM56.5833 63.3333H46.5833C43.8056 63.3333 41.4444 62.375 39.5 60.4583C37.5556 58.5417 36.5833 56.1667 36.5833 53.3333V46.6667H43.25V53.3333C43.25 54.2778 43.5694 55.0694 44.2083 55.7083C44.8472 56.3472 45.6389 56.6667 46.5833 56.6667H56.5833C57.5278 56.6667 58.3194 56.3472 58.9583 55.7083C59.5972 55.0694 59.9167 54.2778 59.9167 53.3333V40.6667L51.5833 18.3333C51.3611 17.8333 51.0278 17.4306 50.5833 17.125C50.1389 16.8194 49.6389 16.6667 49.0833 16.6667C48.3611 16.6667 47.7639 16.9167 47.2917 17.4167C46.8194 17.9167 46.5833 18.5278 46.5833 19.25V23.3333H39.9167V19.25C39.9167 16.6944 40.7917 14.5139 42.5417 12.7083C44.2917 10.9028 46.4167 10 48.9167 10C50.8611 10 52.6528 10.5417 54.2917 11.625C55.9306 12.7083 57.1111 14.1667 57.8333 16L66.5833 39.4167V53.3333C66.5833 56.1667 65.6111 58.5417 63.6667 60.4583C61.7222 62.375 59.3611 63.3333 56.5833 63.3333ZM33.3333 31.4167L24.6667 40L20 35.3333L30 25.3333V0H36.6667V25.3333L46.6667 35.3333L41.9167 40L33.3333 31.4167Z" fill="#009145"/>
</svg>
