<svg width="60" height="67" viewBox="0 0 60 67" fill="none" xmlns="http://www.w3.org/2000/svg">
<path d="M6.66667 66.6667C4.83333 66.6667 3.26389 66.0139 1.95833 64.7083C0.652778 63.4028 0 61.8333 0 60V13.3333C0 11.5 0.652778 9.93056 1.95833 8.625C3.26389 7.31945 4.83333 6.66667 6.66667 6.66667H10V0H16.6667V6.66667H43.3333V0H50V6.66667H53.3333C55.1667 6.66667 56.7361 7.31945 58.0417 8.625C59.3472 9.93056 60 11.5 60 13.3333V60C60 61.8333 59.3472 63.4028 58.0417 64.7083C56.7361 66.0139 55.1667 66.6667 53.3333 66.6667H6.66667ZM6.66667 60H53.3333V26.6667H6.66667V60ZM6.66667 20H53.3333V13.3333H6.66667V20ZM30 40C29.0556 40 28.2639 39.6806 27.625 39.0417C26.9861 38.4028 26.6667 37.6111 26.6667 36.6667C26.6667 35.7222 26.9861 34.9306 27.625 34.2917C28.2639 33.6528 29.0556 33.3333 30 33.3333C30.9444 33.3333 31.7361 33.6528 32.375 34.2917C33.0139 34.9306 33.3333 35.7222 33.3333 36.6667C33.3333 37.6111 33.0139 38.4028 32.375 39.0417C31.7361 39.6806 30.9444 40 30 40ZM14.2917 39.0417C13.6528 38.4028 13.3333 37.6111 13.3333 36.6667C13.3333 35.7222 13.6528 34.9306 14.2917 34.2917C14.9306 33.6528 15.7222 33.3333 16.6667 33.3333C17.6111 33.3333 18.4028 33.6528 19.0417 34.2917C19.6806 34.9306 20 35.7222 20 36.6667C20 37.6111 19.6806 38.4028 19.0417 39.0417C18.4028 39.6806 17.6111 40 16.6667 40C15.7222 40 14.9306 39.6806 14.2917 39.0417ZM43.3333 40C42.3889 40 41.5972 39.6806 40.9583 39.0417C40.3194 38.4028 40 37.6111 40 36.6667C40 35.7222 40.3194 34.9306 40.9583 34.2917C41.5972 33.6528 42.3889 33.3333 43.3333 33.3333C44.2778 33.3333 45.0694 33.6528 45.7083 34.2917C46.3472 34.9306 46.6667 35.7222 46.6667 36.6667C46.6667 37.6111 46.3472 38.4028 45.7083 39.0417C45.0694 39.6806 44.2778 40 43.3333 40ZM30 53.3333C29.0556 53.3333 28.2639 53.0139 27.625 52.375C26.9861 51.7361 26.6667 50.9445 26.6667 50C26.6667 49.0556 26.9861 48.2639 27.625 47.625C28.2639 46.9861 29.0556 46.6667 30 46.6667C30.9444 46.6667 31.7361 46.9861 32.375 47.625C33.0139 48.2639 33.3333 49.0556 33.3333 50C33.3333 50.9445 33.0139 51.7361 32.375 52.375C31.7361 53.0139 30.9444 53.3333 30 53.3333ZM14.2917 52.375C13.6528 51.7361 13.3333 50.9445 13.3333 50C13.3333 49.0556 13.6528 48.2639 14.2917 47.625C14.9306 46.9861 15.7222 46.6667 16.6667 46.6667C17.6111 46.6667 18.4028 46.9861 19.0417 47.625C19.6806 48.2639 20 49.0556 20 50C20 50.9445 19.6806 51.7361 19.0417 52.375C18.4028 53.0139 17.6111 53.3333 16.6667 53.3333C15.7222 53.3333 14.9306 53.0139 14.2917 52.375ZM43.3333 53.3333C42.3889 53.3333 41.5972 53.0139 40.9583 52.375C40.3194 51.7361 40 50.9445 40 50C40 49.0556 40.3194 48.2639 40.9583 47.625C41.5972 46.9861 42.3889 46.6667 43.3333 46.6667C44.2778 46.6667 45.0694 46.9861 45.7083 47.625C46.3472 48.2639 46.6667 49.0556 46.6667 50C46.6667 50.9445 46.3472 51.7361 45.7083 52.375C45.0694 53.0139 44.2778 53.3333 43.3333 53.3333Z" fill="#009145"/>
</svg>
