<svg width="74" height="54" viewBox="0 0 74 54" fill="none" xmlns="http://www.w3.org/2000/svg">
<path d="M0 53.3333V40C0 38.1111 0.652778 36.5278 1.95833 35.25C3.26389 33.9722 4.83333 33.3333 6.66667 33.3333H17.5833C18.6944 33.3333 19.75 33.6111 20.75 34.1667C21.75 34.7222 22.5556 35.4722 23.1667 36.4167C24.7778 38.5833 26.7639 40.2778 29.125 41.5C31.4861 42.7222 34 43.3333 36.6667 43.3333C39.3889 43.3333 41.9306 42.7222 44.2917 41.5C46.6528 40.2778 48.6111 38.5833 50.1667 36.4167C50.8889 35.4722 51.7361 34.7222 52.7083 34.1667C53.6806 33.6111 54.6944 33.3333 55.75 33.3333H66.6667C68.5556 33.3333 70.1389 33.9722 71.4167 35.25C72.6945 36.5278 73.3333 38.1111 73.3333 40V53.3333H50V45.75C48.0556 47.1389 45.9583 48.1944 43.7083 48.9167C41.4583 49.6389 39.1111 50 36.6667 50C34.2778 50 31.9444 49.625 29.6667 48.875C27.3889 48.125 25.2778 47.0556 23.3333 45.6667V53.3333H0ZM36.6667 40C34.5556 40 32.5556 39.5139 30.6667 38.5417C28.7778 37.5694 27.1944 36.2222 25.9167 34.5C24.9722 33.1111 23.7917 32.0139 22.375 31.2083C20.9583 30.4028 19.4167 30 17.75 30C18.9722 27.9444 21.5556 26.3194 25.5 25.125C29.4444 23.9306 33.1667 23.3333 36.6667 23.3333C40.1667 23.3333 43.8889 23.9306 47.8333 25.125C51.7778 26.3194 54.3611 27.9444 55.5833 30C53.9722 30 52.4444 30.4028 51 31.2083C49.5556 32.0139 48.3611 33.1111 47.4167 34.5C46.1944 36.2778 44.6389 37.6389 42.75 38.5833C40.8611 39.5278 38.8333 40 36.6667 40ZM10 30C7.22222 30 4.86111 29.0278 2.91667 27.0833C0.972222 25.1389 0 22.7778 0 20C0 17.1667 0.972222 14.7917 2.91667 12.875C4.86111 10.9583 7.22222 10 10 10C12.8333 10 15.2083 10.9583 17.125 12.875C19.0417 14.7917 20 17.1667 20 20C20 22.7778 19.0417 25.1389 17.125 27.0833C15.2083 29.0278 12.8333 30 10 30ZM63.3333 30C60.5556 30 58.1944 29.0278 56.25 27.0833C54.3056 25.1389 53.3333 22.7778 53.3333 20C53.3333 17.1667 54.3056 14.7917 56.25 12.875C58.1944 10.9583 60.5556 10 63.3333 10C66.1667 10 68.5417 10.9583 70.4583 12.875C72.375 14.7917 73.3333 17.1667 73.3333 20C73.3333 22.7778 72.375 25.1389 70.4583 27.0833C68.5417 29.0278 66.1667 30 63.3333 30ZM36.6667 20C33.8889 20 31.5278 19.0278 29.5833 17.0833C27.6389 15.1389 26.6667 12.7778 26.6667 10C26.6667 7.16667 27.6389 4.79167 29.5833 2.875C31.5278 0.958333 33.8889 0 36.6667 0C39.5 0 41.875 0.958333 43.7917 2.875C45.7083 4.79167 46.6667 7.16667 46.6667 10C46.6667 12.7778 45.7083 15.1389 43.7917 17.0833C41.875 19.0278 39.5 20 36.6667 20Z" fill="#009145"/>
</svg>
