<svg width="47" height="72" viewBox="0 0 47 72" fill="none" xmlns="http://www.w3.org/2000/svg">
<path d="M6.66667 71.6667L1.33333 67.6667L10 56.0833V38.3333C10 36.6111 10.1389 34.7361 10.4167 32.7083C10.6944 30.6806 11.1111 28.8056 11.6667 27.0833L6.66667 29.8333V41.6667H0V26L14.6667 17.6667C16.0556 16.8889 17.2639 16.2917 18.2917 15.875C19.3194 15.4583 20.2778 15.25 21.1667 15.25C22.5556 15.25 23.8194 15.8472 24.9583 17.0417C26.0972 18.2361 27.4167 20.1111 28.9167 22.6667C30.6944 25.6667 32.3056 27.9167 33.75 29.4167C35.1944 30.9167 36.75 32.0556 38.4167 32.8333C39.0278 32.3889 39.5556 32.0833 40 31.9167C40.4444 31.75 40.9722 31.6667 41.5833 31.6667C42.9722 31.6667 44.1667 32.1667 45.1667 33.1667C46.1667 34.1667 46.6667 35.3333 46.6667 36.6667V71.6667H43.3333V36.6667C43.3333 36.2222 43.1667 35.8333 42.8333 35.5C42.5 35.1667 42.1111 35 41.6667 35C41.2222 35 40.8333 35.1667 40.5 35.5C40.1667 35.8333 40 36.2222 40 36.6667V40.8333H36.6667V39.25C33.6667 37.9722 31.3333 36.5417 29.6667 34.9583C28 33.375 26.5278 31.25 25.25 28.5833C24.6389 30.1389 24.1528 32.0417 23.7917 34.2917C23.4306 36.5417 23.3056 38.6667 23.4167 40.6667L30 50V71.6667H23.3333V55L17.4167 46.5L16.6667 58.3333L6.66667 71.6667ZM25 13.3333C23.1667 13.3333 21.5972 12.6806 20.2917 11.375C18.9861 10.0694 18.3333 8.5 18.3333 6.66667C18.3333 4.83333 18.9861 3.26389 20.2917 1.95833C21.5972 0.652778 23.1667 0 25 0C26.8333 0 28.4028 0.652778 29.7083 1.95833C31.0139 3.26389 31.6667 4.83333 31.6667 6.66667C31.6667 8.5 31.0139 10.0694 29.7083 11.375C28.4028 12.6806 26.8333 13.3333 25 13.3333Z" fill="#009145"/>
</svg>
